<mxfile host="app.diagrams.net" modified="2022-02-27T12:20:18.114Z" agent="5.0 (Windows NT 10.0; Win64; x64) AppleWebKit/537.36 (KHTML, like Gecko) Chrome/98.0.4758.102 Safari/537.36" etag="oFFeuatx0wwXG-qRf8sv" version="16.5.6" type="github">
  <diagram id="C5RBs43oDa-KdzZeNtuy" name="Page-1">
    <mxGraphModel dx="641" dy="776" grid="1" gridSize="10" guides="1" tooltips="1" connect="1" arrows="1" fold="1" page="1" pageScale="1" pageWidth="827" pageHeight="1169" math="0" shadow="0">
      <root>
        <mxCell id="WIyWlLk6GJQsqaUBKTNV-0" />
        <mxCell id="WIyWlLk6GJQsqaUBKTNV-1" parent="WIyWlLk6GJQsqaUBKTNV-0" />
        <mxCell id="G5OpUe5toHeCuUsAMi-t-0" value="CafeManager" style="rounded=0;whiteSpace=wrap;html=1;" vertex="1" parent="WIyWlLk6GJQsqaUBKTNV-1">
          <mxGeometry x="363" y="480" width="100" height="40" as="geometry" />
        </mxCell>
        <mxCell id="G5OpUe5toHeCuUsAMi-t-1" value="ShoppingPanel" style="rounded=0;whiteSpace=wrap;html=1;" vertex="1" parent="WIyWlLk6GJQsqaUBKTNV-1">
          <mxGeometry x="363" y="565" width="100" height="40" as="geometry" />
        </mxCell>
        <mxCell id="G5OpUe5toHeCuUsAMi-t-2" value="" style="endArrow=classic;startArrow=classic;html=1;rounded=0;entryX=0.5;entryY=1;entryDx=0;entryDy=0;" edge="1" parent="WIyWlLk6GJQsqaUBKTNV-1" target="G5OpUe5toHeCuUsAMi-t-0">
          <mxGeometry width="50" height="50" relative="1" as="geometry">
            <mxPoint x="413" y="570" as="sourcePoint" />
            <mxPoint x="470" y="570" as="targetPoint" />
          </mxGeometry>
        </mxCell>
        <mxCell id="G5OpUe5toHeCuUsAMi-t-3" value="SquadItemPanel" style="rounded=0;whiteSpace=wrap;html=1;" vertex="1" parent="WIyWlLk6GJQsqaUBKTNV-1">
          <mxGeometry x="230" y="565" width="100" height="40" as="geometry" />
        </mxCell>
        <mxCell id="G5OpUe5toHeCuUsAMi-t-4" value="" style="endArrow=classic;startArrow=classic;html=1;rounded=0;entryX=0.25;entryY=1;entryDx=0;entryDy=0;exitX=0.75;exitY=0;exitDx=0;exitDy=0;" edge="1" parent="WIyWlLk6GJQsqaUBKTNV-1" source="G5OpUe5toHeCuUsAMi-t-3" target="G5OpUe5toHeCuUsAMi-t-0">
          <mxGeometry width="50" height="50" relative="1" as="geometry">
            <mxPoint x="420" y="620" as="sourcePoint" />
            <mxPoint x="470" y="570" as="targetPoint" />
          </mxGeometry>
        </mxCell>
        <mxCell id="G5OpUe5toHeCuUsAMi-t-5" value="SquadPanel" style="rounded=0;whiteSpace=wrap;html=1;" vertex="1" parent="WIyWlLk6GJQsqaUBKTNV-1">
          <mxGeometry x="490" y="565" width="100" height="40" as="geometry" />
        </mxCell>
        <mxCell id="G5OpUe5toHeCuUsAMi-t-6" value="" style="endArrow=classic;startArrow=classic;html=1;rounded=0;entryX=0.84;entryY=1.075;entryDx=0;entryDy=0;entryPerimeter=0;exitX=0.25;exitY=0;exitDx=0;exitDy=0;" edge="1" parent="WIyWlLk6GJQsqaUBKTNV-1" source="G5OpUe5toHeCuUsAMi-t-5" target="G5OpUe5toHeCuUsAMi-t-0">
          <mxGeometry width="50" height="50" relative="1" as="geometry">
            <mxPoint x="420" y="620" as="sourcePoint" />
            <mxPoint x="470" y="570" as="targetPoint" />
          </mxGeometry>
        </mxCell>
        <mxCell id="G5OpUe5toHeCuUsAMi-t-9" value="ButtonInterface" style="swimlane;" vertex="1" parent="WIyWlLk6GJQsqaUBKTNV-1">
          <mxGeometry x="280" y="650" width="140" height="150" as="geometry" />
        </mxCell>
        <mxCell id="G5OpUe5toHeCuUsAMi-t-8" value="SquadItemButton" style="rounded=0;whiteSpace=wrap;html=1;" vertex="1" parent="G5OpUe5toHeCuUsAMi-t-9">
          <mxGeometry x="20" y="100" width="100" height="40" as="geometry" />
        </mxCell>
        <mxCell id="G5OpUe5toHeCuUsAMi-t-7" value="CafeItemButton" style="rounded=0;whiteSpace=wrap;html=1;" vertex="1" parent="G5OpUe5toHeCuUsAMi-t-9">
          <mxGeometry x="20" y="40" width="100" height="40" as="geometry" />
        </mxCell>
        <mxCell id="G5OpUe5toHeCuUsAMi-t-12" value="" style="endArrow=classic;startArrow=classic;html=1;rounded=0;exitX=0.75;exitY=0;exitDx=0;exitDy=0;entryX=0.5;entryY=1;entryDx=0;entryDy=0;" edge="1" parent="WIyWlLk6GJQsqaUBKTNV-1" source="G5OpUe5toHeCuUsAMi-t-9" target="G5OpUe5toHeCuUsAMi-t-1">
          <mxGeometry width="50" height="50" relative="1" as="geometry">
            <mxPoint x="420" y="620" as="sourcePoint" />
            <mxPoint x="470" y="570" as="targetPoint" />
          </mxGeometry>
        </mxCell>
        <mxCell id="G5OpUe5toHeCuUsAMi-t-15" value="" style="endArrow=classic;startArrow=classic;html=1;rounded=0;exitX=0.136;exitY=-0.013;exitDx=0;exitDy=0;exitPerimeter=0;entryX=0.5;entryY=1;entryDx=0;entryDy=0;" edge="1" parent="WIyWlLk6GJQsqaUBKTNV-1" source="G5OpUe5toHeCuUsAMi-t-9" target="G5OpUe5toHeCuUsAMi-t-3">
          <mxGeometry width="50" height="50" relative="1" as="geometry">
            <mxPoint x="420" y="620" as="sourcePoint" />
            <mxPoint x="470" y="570" as="targetPoint" />
          </mxGeometry>
        </mxCell>
        <mxCell id="G5OpUe5toHeCuUsAMi-t-16" value="SaveDataManager" style="rounded=0;whiteSpace=wrap;html=1;" vertex="1" parent="WIyWlLk6GJQsqaUBKTNV-1">
          <mxGeometry x="190" y="480" width="110" height="40" as="geometry" />
        </mxCell>
        <mxCell id="G5OpUe5toHeCuUsAMi-t-17" value="" style="endArrow=classic;html=1;rounded=0;" edge="1" parent="WIyWlLk6GJQsqaUBKTNV-1" target="G5OpUe5toHeCuUsAMi-t-0">
          <mxGeometry width="50" height="50" relative="1" as="geometry">
            <mxPoint x="300" y="500" as="sourcePoint" />
            <mxPoint x="360" y="500" as="targetPoint" />
          </mxGeometry>
        </mxCell>
      </root>
    </mxGraphModel>
  </diagram>
</mxfile>
